# xmcd
#
# Track frame offsets: 
#        183
#        22375
#        42008
#        65358
#        93185
#        123065
#        144168
#        165768
#        186503
#        223280
#        253125
#
# Disc length: 3456 seconds
#
# Revision: 0
# Processed by: cddbd v1.5.2PL0 Copyright (c) Steve Scherf et al.
# Submitted via: ExactAudioCopyFreeDBPlugin 1.0
#
DISCID=960d7e0b
DTITLE=The Katzz - My Everything
DYEAR=1992
DGENRE=R&B
TTITLE0=Do It To Ya
TTITLE1=Bambi Eyes
TTITLE2=My Love For You
TTITLE3=Gold Mercedes
TTITLE4=My Everything
TTITLE5=Tic Toc
TTITLE6=I'll Be Your Lover
TTITLE7=If Walls Could Talk
TTITLE8=Crystal
TTITLE9=Sweet As Can Be (Instrumental)
TTITLE10=Just Me (Interlude)
EXTD=
EXTT0=
EXTT1=
EXTT2=
EXTT3=
EXTT4=
EXTT5=
EXTT6=
EXTT7=
EXTT8=
EXTT9=
EXTT10=
PLAYORDER=
